<?xml version="1.0" standalone="no"?>
<!DOCTYPE svg PUBLIC "-//W3C//DTD SVG 20010904//EN"
 "http://www.w3.org/TR/2001/REC-SVG-20010904/DTD/svg10.dtd">
<svg version="1.0" xmlns="http://www.w3.org/2000/svg"
 width="210.000000pt" height="210.000000pt" viewBox="0 0 210.000000 210.000000"
 preserveAspectRatio="xMidYMid meet">
<metadata>
Created by potrace 1.14, written by Peter Selinger 2001-2017
</metadata>
<g transform="translate(0.000000,210.000000) scale(0.100000,-0.100000)"
fill="#000000" stroke="none">
<path d="M1232 1283 c-38 -19 -69 -55 -113 -130 l-29 -53 80 0 c75 0 80 -1 80
-21 0 -17 -49 -90 -80 -119 -3 -3 -14 -15 -25 -28 l-19 -23 58 4 c51 4 59 2
66 -17 13 -35 -4 -42 -112 -41 -102 0 -103 0 -106 25 -2 18 12 41 53 85 30 33
55 63 55 68 0 4 -20 7 -44 7 l-44 0 -61 -104 c-34 -58 -61 -111 -61 -118 0 -8
6 -23 14 -33 13 -19 32 -20 403 -20 213 -1 403 3 421 8 18 4 46 20 62 35 36
34 260 412 260 440 0 12 -10 28 -22 37 -20 13 -73 15 -413 15 -339 -1 -394 -3
-423 -17z m240 -223 c15 -18 24 -38 21 -43 -3 -6 -1 -7 5 -3 7 4 12 13 12 21
0 20 47 54 87 61 77 14 137 -26 148 -99 7 -42 3 -44 -92 -42 -40 0 -73 -3 -73
-7 0 -14 32 -38 51 -38 11 0 30 5 41 11 17 9 24 7 40 -9 20 -20 20 -20 -6 -37
-66 -44 -162 -22 -195 43 l-20 38 -78 -2 c-43 -1 -80 -2 -82 -3 -2 -1 4 -10
14 -21 21 -23 43 -25 79 -9 20 9 29 9 41 -1 23 -19 18 -36 -13 -49 -98 -41
-187 -3 -199 86 -12 89 47 147 142 140 41 -4 54 -10 77 -37z"/>
<path d="M1349 1031 c-32 -26 -16 -38 41 -31 l45 5 -22 23 c-28 27 -34 27 -64
3z"/>
<path d="M1595 1033 c-16 -15 -17 -35 -2 -34 4 1 23 1 42 1 24 0 35 5 35 14 0
29 -52 42 -75 19z"/>
<path d="M709 1226 c-1 0 -3 -76 -4 -168 l-2 -168 39 0 38 0 0 70 c0 57 4 74
20 90 46 46 75 14 75 -84 l0 -71 38 -3 c36 -3 37 -2 38 30 4 141 -6 188 -46
206 -29 13 -84 5 -108 -16 -18 -16 -19 -15 -17 28 3 85 3 86 -35 87 -19 0 -36
0 -36 -1z"/>
<path d="M68 1178 c-3 -7 -4 -23 -3 -35 1 -16 -4 -23 -17 -23 -13 0 -18 -7
-18 -25 0 -18 5 -25 19 -25 16 0 18 -7 17 -52 -1 -29 2 -66 7 -82 12 -36 59
-57 100 -45 38 11 39 12 32 41 -5 20 -11 24 -31 20 -13 -2 -24 0 -25 4 -1 5
-2 32 -3 61 -3 51 -2 52 28 55 25 2 31 7 31 28 0 20 -5 24 -30 25 -23 0 -30 5
-31 20 -1 11 -2 26 -3 33 -1 7 -15 12 -35 12 -19 0 -36 -6 -38 -12z"/>
<path d="M267 1117 c-70 -40 -81 -135 -22 -194 34 -34 38 -35 93 -31 32 2 68
11 80 19 22 16 22 16 3 38 -17 19 -21 20 -46 7 -27 -14 -48 -12 -72 7 -27 20
-10 27 67 27 l79 0 17 -35 c20 -43 59 -65 114 -65 42 0 95 24 104 46 7 18 -52
40 -67 25 -29 -29 -87 2 -87 48 0 38 18 61 48 61 16 0 33 -5 39 -11 9 -9 20
-7 43 8 l32 20 -33 24 c-62 44 -175 19 -194 -42 -7 -20 -8 -19 -25 9 -23 37
-46 51 -98 56 -27 2 -51 -3 -75 -17z m103 -56 c15 -30 14 -31 -35 -31 -30 0
-45 4 -45 13 0 37 62 51 80 18z"/>
</g>
</svg>
